<mxfile host="app.diagrams.net" modified="2023-05-08T07:27:17.379Z" agent="Mozilla/5.0 (Macintosh; Intel Mac OS X 10_15_7) AppleWebKit/537.36 (KHTML, like Gecko) Chrome/112.0.0.0 Safari/537.36" etag="KbSpfTWYLmNWRO9EgRn9" version="21.1.4" type="github">
  <diagram name="第 1 页" id="SrVXgx47jgW-QJG-wXQ4">
    <mxGraphModel dx="1781" dy="1760" grid="1" gridSize="10" guides="1" tooltips="1" connect="1" arrows="1" fold="1" page="1" pageScale="1" pageWidth="827" pageHeight="1169" math="0" shadow="0">
      <root>
        <mxCell id="0" />
        <mxCell id="1" parent="0" />
        <mxCell id="RWAFtKKmU8rQcfdAleEB-29" value="" style="rounded=1;arcSize=10;dashed=0;fillColor=none;gradientColor=none;strokeWidth=2;" parent="1" vertex="1">
          <mxGeometry x="115" y="-1" width="1080" height="660" as="geometry" />
        </mxCell>
        <mxCell id="5lozJBpcjCSgkVlXkn5g-42" value="" style="rounded=1;arcSize=10;dashed=1;strokeColor=#F59D56;fillColor=none;gradientColor=none;dashPattern=8 4;strokeWidth=2;" vertex="1" parent="1">
          <mxGeometry x="360" y="330" width="450" height="289" as="geometry" />
        </mxCell>
        <mxCell id="5lozJBpcjCSgkVlXkn5g-59" value="" style="rounded=0;whiteSpace=wrap;html=1;" vertex="1" parent="1">
          <mxGeometry x="409" y="372.5" width="100" height="110" as="geometry" />
        </mxCell>
        <mxCell id="5lozJBpcjCSgkVlXkn5g-58" value="" style="rounded=0;whiteSpace=wrap;html=1;" vertex="1" parent="1">
          <mxGeometry x="520" y="371" width="270" height="110" as="geometry" />
        </mxCell>
        <mxCell id="5lozJBpcjCSgkVlXkn5g-57" value="" style="rounded=0;whiteSpace=wrap;html=1;" vertex="1" parent="1">
          <mxGeometry x="395" y="500" width="395" height="100" as="geometry" />
        </mxCell>
        <mxCell id="RWAFtKKmU8rQcfdAleEB-25" value="" style="rounded=1;arcSize=10;dashed=1;strokeColor=#F59D56;fillColor=none;gradientColor=none;dashPattern=8 4;strokeWidth=2;" parent="1" vertex="1">
          <mxGeometry x="360" y="30" width="450" height="290" as="geometry" />
        </mxCell>
        <mxCell id="5lozJBpcjCSgkVlXkn5g-9" value="" style="rounded=0;whiteSpace=wrap;html=1;" vertex="1" parent="1">
          <mxGeometry x="405" y="194" width="385" height="110" as="geometry" />
        </mxCell>
        <mxCell id="RWAFtKKmU8rQcfdAleEB-81" value="" style="rounded=0;whiteSpace=wrap;html=1;" parent="1" vertex="1">
          <mxGeometry x="520" y="70" width="270" height="110" as="geometry" />
        </mxCell>
        <mxCell id="RWAFtKKmU8rQcfdAleEB-80" value="" style="rounded=0;whiteSpace=wrap;html=1;" parent="1" vertex="1">
          <mxGeometry x="410" y="70" width="100" height="110" as="geometry" />
        </mxCell>
        <mxCell id="RWAFtKKmU8rQcfdAleEB-64" value="" style="rounded=1;arcSize=10;strokeColor=#191919;fillColor=none;gradientColor=none;strokeWidth=2;" parent="1" vertex="1">
          <mxGeometry x="-354" y="440" width="350" height="112" as="geometry" />
        </mxCell>
        <mxCell id="RWAFtKKmU8rQcfdAleEB-67" value="" style="rounded=1;arcSize=10;strokeColor=#191919;fillColor=none;gradientColor=none;strokeWidth=2;" parent="1" vertex="1">
          <mxGeometry x="-362" y="99" width="357" height="112" as="geometry" />
        </mxCell>
        <mxCell id="RWAFtKKmU8rQcfdAleEB-53" value="" style="rounded=1;arcSize=10;strokeColor=#191919;fillColor=none;gradientColor=none;strokeWidth=2;" parent="1" vertex="1">
          <mxGeometry x="-360" y="273" width="357" height="112" as="geometry" />
        </mxCell>
        <mxCell id="RWAFtKKmU8rQcfdAleEB-1" value="" style="sketch=0;outlineConnect=0;fontColor=#232F3E;gradientColor=none;fillColor=#4D27AA;strokeColor=none;dashed=0;verticalLabelPosition=bottom;verticalAlign=top;align=center;html=1;fontSize=12;fontStyle=0;aspect=fixed;pointerEvents=1;shape=mxgraph.aws4.gateway_load_balancer;" parent="1" vertex="1">
          <mxGeometry x="155" y="282" width="78" height="78" as="geometry" />
        </mxCell>
        <mxCell id="RWAFtKKmU8rQcfdAleEB-2" value="" style="outlineConnect=0;dashed=0;verticalLabelPosition=bottom;verticalAlign=top;align=center;html=1;shape=mxgraph.aws3.cloud_2;fillColor=#F58534;gradientColor=none;" parent="1" vertex="1">
          <mxGeometry x="1070" width="75" height="40" as="geometry" />
        </mxCell>
        <mxCell id="RWAFtKKmU8rQcfdAleEB-4" value="" style="shape=image;verticalLabelPosition=bottom;verticalAlign=top;imageAspect=0;aspect=fixed;image=data:image/png,iVBORw0KGgoAAAANSUhEUgAAAMgAAADICAYAAACtWK6eAAAAAXNSR0IArs4c6QAAIABJREFUeF7tXXt8G9WV/s7INm9ijQzpUigBSzKEPti2tGXLtoQupQ8KXZYFuuzyKpBIctLSQmiidMniCKVAl5BYUgwUaJfdsmzLow+WvqC0sGyBpS2QkmjkpLRACbEkh0AhsTVnf1eyjZ3YnitpJM1IV//63HO/8535PHNn7j2HoH6KAcXAjAyQ4kYxoBiYmQElEHV1KAZmYUAJxCGXR+cNWzrRNnpsocN8dsfCniGHwGp5GEogDbwEOtcZJ2ptOA2MBQCOnQQlzcCviLT7clr+e1j4/pEGwmzpqZVAGpB+PWGcCcIVAD4gMf1mMKdykeD1ErbKxGYGlEBsJnQ2d52p5+ZpaF8O5kvKn5YehGmuzvUGf1L+WDWiUgaUQCplrsxx3mTmUgJHAbyjzKFTzQk3dOyF+MsXBbZV5UcNlmJACUSKpsqNuvqN95qaEAadUbmX3UfyJoIWz4b937TPp/I0HQNKIDW8LnxJYxkzR0G0X02mYdxlguPDkeBvauJfOYUSSA0uAr0/fTJ5aDkzTqyB+91c8msEjmfDwThAXPv5WmsGJRAb891525ZO7Y1CFODLbXQr6YoeYZir8+HgDyUHKDMJBpRAJEiSMdETmbMhFuGEd8nY18qGgYRGe8ezocNerNUcreRXCaTKbM9Za3R72oqL8AurdGXn8C1giuci/pvtdNqKvpRAqsi6NzUYIjbFq9u3V+GmZkMZuFcjM54N9Txes0ma3LESSAUJ9iUGjzM1M0qM0ysYXtchBOxkxupcAXEsCeys6+RNMJkSSDlJZCZfyogySNw19i5nqANsHyeQ+HZyrwOwuAaCEohkqvRE5hOAKb5pnCA5xJlmhJsLbe3x7ZfM2+JMgM5CpQRikY8DBjZ1tZvacjAuc1bqqkLzIgHxbDiQqMpLCwxWApklyd7k4D+QuGsA85vyWmC+n8HxfKTnkaaMz4aglECmIbGrfzBYEItw4DwbOHa2CyJm5tWeHYX40JVH7XA22PqjUwLZjXNfMr2YmcQHv7n1T0dDZ/wNCPFcKHBXQ1E4bHIlkLGE6P3G8eSB2D91qsNyVGc49E0NWnwofOSmOk/syOmUQB7iNn1jJgqGWGu0OzJLdQZFwDZmxHORwA11ntpx07W0QLzJ9Kep9Dh1vOMy4whA/FMiLZ4N+R90BJwGgGhJgRy8ZvPckY7RKIEWN4Bz903J+PoIj8Z39B6ddR/46hC3nEB8iU3nMXmWA9xTHXUtN/p3Y99O7milyFtGIL5E+mhoFGXGua2UYNtjJfo2axTPL+x+xnbfDnTYEgLRk8YXgeIivMuBOXAjpO0MxPPhwNfcCL4czE0tEG9i0wkETSzCP1EOKcpWkgHmXwCaOHfygOQI15k1pUDmrdyy96tzC2L/lDj+qrkuKy4DzOB1Hs9ofGjh/D+5DLol3KYTSFfSOM0sPU7JVC20JEgZyDHAQIZKX+JvlRvhDqumEUjXuo2HcJtHLMLD7qC+aVF+VwPFh8L+/2uGCJtCIHoyfSGBogx0N0NSmiCGN8Acz217MY6VC0bdHI+rBeJd99y7qK1Y6/YcNyehibH/rwnEh8OB77k1RtcKRE9lvjy2CPe6lfxWwU2g9QVz1+rh3vnPuy1m1wmkM2l8VBNvpwgnu43sFsf7B4YWz4e717uJB9cIZO51v91v1377ikNMy9xEsMI6lQECvs8a4rlFgcfcwI0rBOJLpM8wSVtO4Pe5gVSF0ZKBAsDxvT37x19aeMifLa0baOBogeiJzGHQEAXzwgZypKauEQPMeEpsgMxFAt+p0RRVu3WsQPSkcXGx1i1oXtVRKgfOZoBwq4dGVm9bNN9wGlDHCaQzkT5WE4XZCGc6jSyFp5YM0MviS3w25F9by1nK9e0ogXiTxpUELAdwYLmBKPumYeBHY99OHnZCRI4QiC+VOanYiQk4yQmkKAyNZ4CYri3s8sSHLztiuJFoGioQfa1xILWLQ0y8tJEkqLkdy8CzxcJ24eB/NAphwwSiJ42/H1uEv6dRwat53cEAAXewidW53sCGeiOuu0DmrNt4hMfTJs6EX1zvYNV8rmYgN9YU6Pp6RlFXgXhTmYVUWmscVs8g1VzNwwADD5HG8dyi4E/qEVVdBNKVzLzPFJ2YiP62HkGpOVqCgTXtRPGtIf8rtYy25gLxJY3lXDrht28tA1G+W5ABRrrYAjsSvL1W0ddMIHrC+DgRhDg+Wivwyq9ioMgA4S4TWD0cCvzabkZsF8ic5PNeD+0StW6/bDdY5U8xMAsDrxUL24X8cRCxXUzZKhBvKnPO2CL8nXYBVH4UA2Uy8OjYt5MfljluWnNbBHJQIuMvlPr3XWAHKOVDMVAtA0RI8gjiuSWBF6rxVbVAfEkjwqX9U4dUA0SNVQzUgIEtDHN1PtxzU6W+KxaIL7X5A+CCqCRyWqWTq3GKgXowwKB7tWIbhyMfL3e+8gWykjV9rhEVfTUY2KvcCZW9YqBBDOwCI64XEM8sCeyUxVCWQLzJzCepeIgJH5adQNkpBpzFAD8x1hToHhlcUgLZf61xUIeHxSL8CzJOlY1iwAUM3FIAx7eHg5tnw2opEG/KOJdK/fuOdkHQCqJioBwGXiQ2V2cjPf0zDZpRIF3JzT0FFESZnX8qZ0ZlqxhwHQNE9481BXpkd+zTCsSXSi8p9goHDnZdsAqwYqByBs7KhQP/NXn4HgLRk8adAM6ufA41UjHgagamiGSKQPRE+m61Jd3VyVXg7WFgQiQTAvEl0hcw0W32+FdeFAPuZkADvV/0OCkKZM6A0a2N4jEiHOTusBR6xYBdDPBNuXBwYVEg3oSRIFKdmeyiVvlpDga0HYUDqetrGw8wD9BeBOiA5ghLRaEYsIcBzdR6yJsY/ByR2bC6Q/aEorwoBuxnwCxgAemJTStB2lX2u1ceFQPuZkAJxN35U+hrzIASSI0JVu7dzYASiLvzp9DXmAElkBoTrNy7mwElEHfnT6GvMQNKIDUmWLl3NwNKIO7On0JfYwaUQGpMsHLvbgaUQNydP4W+xgxYCoSAXzPwlzXGodwrBhzJgKVAhIGm4VSQKkTtyAwqUHYwIM5AXTidIymBDC8O/Nzbv+lTpGnijPpf2YFI+VAMNJwB5o1MFOMCXtA8eKgqgYjB827bsverb4xEgWIxB8tyQQ0nQAFQDMzAAAMJT6FwzdDio17qXGecaItAxufqSmQWmBqiYP6YyoBiwE0MMOMpDVosG+m+exy37QIZd1xqrSbuJqxaq7npKmlZrHy9ubM9NnzZEcOTKaiZQMQketL4EBGizDi1ZXlXgTucAXoEGmK5Rf4HpgNaU4GMT6injMvAvAIg3eFsKXitw0ABQCzXtSuGs47ZNVPYdRGImLwzkT5WE49chDNbJwcqUocy8GMTuGY4HHjYCl/dBDIOxJsyQmPFrt9uBU79XTFgMwM7GIjlw4Gvyfqtu0AEsK6bBoOFUXOFKnwtmyZlVy0DzLhPgxnLRnqeKMdXQwQy8aYrkb7AJBIV4v3lgFa2igFpBoi2EiOWDfvXSY+ZZNhQgQgcvtSmtzN7/hngSysJQI1RDMzIAPO3wRTL9QY2VMpSwwUyDlxPZM5G6QPjuyoNRo1TDJQY4N8DFMuFA7dUy4hjBCIC8Q4MzqHRwtUgWlJtYGp8yzLwjUJ7e2z7JfO22MGAowQysTbpN05nTTQDpePsCFL5aAkGfsfgWD4ctLUKqCMFUkznXezxDWViDFzZEulVQVbMAIPWtfHOa7ZFjnm5YiczDHSuQMYA6+vTJ4NpBRgfsTt45c/lDDCeJCLxhureWkXieIFMLOJTxlUoddNtrxUZyq97GCDgazyKa3JLAq/WErVrBCJI0Ncbx8OEKKR9Si1JUb4dzADhFzARy0UCP64HSlcJZJwQbyqzlNgUmx9Vz5J6XCWOmINHQbQqt/WFGFYuGK0XJFcKRJDjTW58N9hzNRFOrxdZap5GMUAPsIdi+YXde/QprzUi1wpknBjVs73Wl0hD/b/K4FX5cPC6RqFwvUAEcXOS6SM9QAygcxpFpJrXZgaY79FIi4lOsjZ7LstdUwhk4k1X0rgYwAoAh5fFgjJ2EAP0MoFXZcOBhBNANZVABKFzU5mDR5hXz1TLyAmkKwzTM0CMfwc4lo0En3MKR00nkElvus4hsPh2cpRTyFY4ZmCAeQvI05cLd4sibY76Na1ABMuHDLy0707z9euYVY93R111k8EQbjYLnthw75HPOxFjUwvkrbvJ4KnEhT6AjnViEloU0wYmc1U+1HOnk+NvCYFMWsR/HcCXnJyQlsBGdGPHXhx7+aLANqfH21ICEckoVn4Ex0A43unJaT58/IQJWjUcDnzPLbG1nEDeupukxSOXeCWsfnVggBmr27Arti1yzGt1mM62KVpWIIJBX2LTcUyaeCV8km2MKkdTGCDgYRS/awR/6kZqWlogE4v4pHElga4CeB83JtGhmEfA3JfbFohhJZkOxWgJSwlkjCJfIn00k3YdwJ+2ZE0ZWDBA/w3GqlzE/z9up0oJZLcM+pJGhIE+sWHY7cltAP7tIOrLhfzibWFT/JRApkmjnsgcBuIbAPxdU2S5LkHw3SbRquFQ4Nd1ma5OkyiBzEK0L5k5n8HXiI/ydcqHC6ehPzFxXz4USLkQvCVkJRALig781w26Z++ONaqO8J5EMXCHB4VVQ+GjNlleaS41UAKRTJyeMM4kDauZ0S05pGnNiDAIpr5s2P/Npg1yLDAlkHIyvHJDh+/gjjUMhMoZ1ly2fBNYE2+o/thccU0fTUsIxJfc9FlAm28CH9REe18Nj+dCwe9WmmA9kfkEwNeDcEylPlw47lmY6Mv1Bu5yIfaKITe1QA5KZPyjxHcS8L7dGWLg/wC6KR/231Qpe3oyfS1AV1Q63kXj1oyY+6za0Xto1kWYbYFqKRBf0ljGgHiTs8ePQZ/Kh/3/bQsSm53oa41D0QaJxwC+06T2ZcOhI35fCQRvYvAEgnkDCO+vZLzDxzxeekMV/IHDcdYM3mwCAdOHyZdIX8BE05/0YroiF/FfXzN0lTpeuaFDn9vxAzBOlnFBwCADy3LhwH/J2E9noyeNfwbwL5WOd9o4JrpmP99eq14467A3nIatnni8CSNMhGnPxxdG4Sc9YXwchB/NBMqk0SOGQ0dX9N+3VoHqSUOc+ajgay5fl+sKLMNZJDqglv0TjUo9RGIR/9GyBztkAAM/14j6siH/gw6B1DAYnTds6dT2GhW1uKZda3p41wEk0OlJQzRXnzMTUgKf7KTdmnoi/UsQnVAJs+ICodLd5H8rGT/GlxCoaBTZVqmPBozbReC+bDi4qgFzO3JKPWmIXQEznELlm3Lh4MKiQHxJIynxavO2XDhwkRMi1ZMGV4njNSJalg35+yv1I14QFGDeCKJPVeqjbuOI7i/uvK3in0LdsNZhIj1pfAjAY7NNpYHeL2p2FQVSTDbxLwG8bbZBDOz0wPOeofCRDf2yaoNAimEy8C3PXnstG/r8O16qNC/eRHohEa4HaP9KfdRwnHgyEML41xrO4SrXeiq9BkxfsAB9yXh7t6JASneRzGIGr5WKVvw3igTForUhP7sEMgb+OdKwLLsocF+lwXQN/O4vzNH2NSCcVakP+8fxdxltV+fDRz5tv2/3eTxgYFNXe0F7RuIm8L18ODBRD3pCIEWRpDJLmPlGmfDFdoS21/78nq1XvOd1GXs7bWwWSOluQhzLh4JVHdH1JoxzNcINDBxkZ7xl+nqJwX35cHB9meOa1nzsiIPM4/R/5sKBKeVtpwhk7E7yWdELDsB8KcaYLs1F/DdL2dpkVAuBjEH7sWZi2VBv4KlKoXZ9Y+MB5psecTep+3qNgX9r07S+bYu6jUrxN9s4PZn5BcB/PXtc9AbAK6Z7FN1DIMJR8ZGh0CaKRV8oQ5g4l5wNB06UsbXDpoYCAQg5Nnl5PhIcqAarb71xOpu0BuB51fiRGctARhObCyP+b8nYt4KNvs44BR48YBVr8a0mU3Sm05HTCmTcqTeZuZRKd5Muq4mKf9fok7lFfktQUr5mMaqpQN6a95Zdo1j+2pIqajsxk54cXAPi2rW9ZhogrdCXDfW8WC2vzTJeTxq3ytRuJsbq7DZ/dLYz9bMKRBDmTW5+t4aC6EZ7qgyB4gxBPhz4JxnbSm3qJBAB77cMWlbtdhvf+sGPsWmuAfDOSmPeYxzjGVDxDVXFuwNsw+IQR6U2GWIhzvtaQNpAGqIyL2YsBTI+kS+ViTKz7Eem7Ux0Qj7kf7YW3NVRIOPwr8qFA1dXG4s3mYkReHm1fkC4ocAdfdvDh+er9tUkDmbbUzglRMatHuyKyraUlhaImMSXTP8NlxrZfECGVwbi+XCg+gtit8kaIBAQ8AOTaFm1ovcNbPkgF0Yr/Yr/q7E3VD+U4b8VbPS1xoFoE9/w6N2zxUvANi6tNcp6oVSWQASAgxIb9i+gPQYi2edqgz3acfmF3dvtSlgjBFLEztgK4mW5cLCqMv6V4GeimG+E+zJLAjvt4tHtfvSk8fcALM+vEPB906NF8wu7xXeQsn5lC2Tcu3f94OfINMUC/giZGZkRyUcCSRlbK5tKLjArn+X8nQhJU9OWVyr6svCLVmXQ1g1F/A+Vg7HZbfWk8R2ZqjTEvCIbCYrrtKJfxQIRsxUXRaStAvPnJGd/NBcOVLTJcLL/si4wSWDlm9ETpNGy7KLun5U71gL/H0HYCBNPA3R3MxRnK5ef2ey7+o33mpo4DGfxY/yK2Ixme3vKzs9kz1UJZNyRnkiLvS3isWs/K9zi78w4LR8JfF/GdjobZwhkAtlZ5b5Jmg2/WcCC4cWBn1fKTTOP86WMODO+Yhkj0Y3t++0f3Xre26re5WGLQARgX3/6g+xBDEwfswygaEB35sJ+2TvPFJcOE4jAVpZIlEDkrpBxK+/A4DuoUHgYIKuPrpuZKJoP+W1r2mObQCaCSWVWEXNUkoJXTOZThiPB30jaF80cKBCMb4+WiUMJRIalko2eMD4Pwi2WI5i/XTDN6PbFR22xtC3DwHaBiLm9CeMzVHzkwrvksPD1uXBQujiCEwUClA7YyMSrBGLN0iEDT+77pjnnXolj1a8RcTQbCsrtRLeeeopFTQQiZth/rXFQR7t45MIlkpieHTH3OVGmsoYTBSJ2N2dDAb9MrEogs7PkS2VOYmaJxTX9lEiLZkNHPi7DeyU2NRPIOBg9ZVwEFh8XZz+MNW5PxF+w+m+gJ4xvNGK3rBXBuXBAik8lkJmZ9CXTSQZJFO6jVbmw/6tWOan271IJrXYSvd84hjVaReDPSvp6MBcOzLjY9yYznyTw/ZK+6mamBFI51WLPH2H0IYD02b3w00yI1qtUUV0EMh6wN2F8hah4N9EkqHyTiP4hG/LfM52tN2kYBEg90kjMZYuJEkhlNOoJ4zIQJI4F800jHo7uWNgzVNlM5Y+qq0AEvK6UcaJZeuT6Kzm4fGcuHNzjdbCe2LQSpF0l56M+Vkog5fHctW7jIabHczeAD84+kv4EUDQX7q5qi0956ErWdReImHTebVv2fvWNUSES2Z7mfyA2z8xGep6YHKQ3mbmnjMe2Svgpa4wSiDxdvsTgGUymZf1kBu6lUURzSwK/k/dun2VDBDIOX+83zoKHxFaVgGRIa3LhwGWTbZ10J1ECkcjiXRs6fNs6bmXCuRbWBQai+XBA1B9r2K+hAhFRi6+kKJgxAv5RigWiJz2m5zPbIke8PCG0ROYTrHGMGO+V8lEjIyWQ2YntXL/5I5pZEK9vrQruPWoC0eFw4OEapUrabcMFMo50rPKEeOyascLjlKjYvDwX6ZkoP9p525ZOz5ujMWaEpaO32VAJZGZC9ZRxFRgrLSkn+ro+wlGnbOt3jEAEcV3JzPvM0hn4UyyJFAZE9+dC/iltnX2JzHnFqiyEQ6V82GikBLInmfp6Yz5MiK3pR1tQLSqxRMvd+Glj+qZ15SiBTDwyJQ1RRV22MN12mLh0cuOXrv7BoOkxxVf8M2tN4GT/SiBT2ZbdRyXKFY1VFpFoZ1HPjDboLZZMiOJjoAYWxSL+UsYeRLfnQv4pZYr0RPpyFL+7UIeUjyqNlEBKBM5NZQ4eZb6Fgc9YUDrMjKhdB+mqTJ977iDjSOckn/e2YZcQicTWg+IoAxrOzy0KTBQmLjbA0Yp3k4/UgkB1B5nKqq/fOJ013GvNNT2gYWTFUPho68NP1s5qZuHIR6zdo/UlN53PxZOLcusKIro2G/JfOeHnIW7zbRyMMfPSmjEJoKXvICtZ0w/OXCf1bYvxL7lIwHrBXstkSfp2hUBELF3JjT0mNPG49HeSsT2KdpyTuyTwwri9L5E+o1iVhegoSR9lmbWqQLypjR8mU7sLRIfMRhgTniKzWFmk5sUFy0rcLMauEch4DHoiczmo+KZLZl3BYF6aiwQn2sh1rfvDIWbbrhiYL7CLxHE/rSgQPZX5Mpgt2/SJQheFvduiwxceIVoyuObnOoEIZr0DgycUK6rIriuY78lFgmdMzoo3mV5UPNRluXt0t1wyTND0my1bSSDijs7wDFi2o2O8QDCj2UiPK+sGu1IgxUt24Ml2vXCguMDlTiIStjJrX8qHu/9j/JIXPQc1TRN3E1u6RLWKQHzJzPkMvt3yNsD4jsZadKi3O21p61AD9wpkjNCy1xXMA7lIcNHkfNjVwbbZBXJA/3O+dq1tNYCLZ7ueCdgpiifkQv4KGq06SymuF0hxAV/uuoLwjFng3uHe4C/eWtsYHy+VLqqwHzrhsVwoILWF340nCr3J9KcJuNOq1ZxohWGWKos86qxLvTI0TSGQ8dC9qcxC4uIC3idFB1NfLuKf+GIv6rxyO8WIuVdq/CQjZiTzkUBEZpzbBKInM32iwYxVbMR8bXbbi1GsXDBqZeuWvzeVQATpxXVF6VWu3LqC6GeF0dFLJpeL8SaNfywt4PEOqUQSbdWITh1a1P2kjL1bBCJqnUGjlMRuhueIKDrT6U8ZTpxq03QCmXhkSqW/CibJlgX0BhGWTm4LXez8q7F4U2bVmPMVhnZRPtwtXXHdDQLRE4NfABV7mlj9btM87dGhhfP+ZGXoxr83rUBEMvT1m09GscA2HyeVHKJv547qPg8LaOIRobg7WMNnwfy3e/ggurHQ1nbj9kvmlVWszMkCmTNgdHsKiAMQldNn+w0x84pqW9VJ5aWBRk0tkKJIxLrCgxgRZNcVfwDhilwoMKWsvn6zcShGcDyYDgf46bYOz29fueTIrZXkzqkC8aaMc4lxh3VM/ENT4+jwop7fWtu626LpBTKeHtGieayiyuFSKSO6MRfyf1HKtkwjpwnEOzA4Z+xUp+VLBgJ9NRv2y3YaK5MZ55m3jEAE9WOPD2LxfbZUKhhPahquGArZW23dSQLRU8YpBCSY0W3ByeMELZoNd/9UirsmMWopgUws4JODX0Tx5KJls8fiEAKi2XDgGrty7hSB6AljJQiWpZMYvM6zw4wOXXnUDrs4cIuflhRIcW3SbxzPGkSxiAVSyWK+3+PxfHHbom5xNLSqX6MFIn+0mX9fqiwSnNieU1XgLhzcsgIp5oqZvCnReRbLJHM3DDaX5iI9ZTWC3N13IwXiS2zqZdLWWcdLdxZgRreHg5utbZvXorUFMpbXrqRxmln6MCjXx5z59n137hN+4UuHvVHJpdEIgXT2bz7cQ4WYRD2q16Fp0dyi7hsria3ZxiiBjGX04DXPzB3t2GcVwLNuxJt0AaTJxNJsb+C+ci+KegvEm9p0jsbaWgYOssD64FhlkUrbVJdLhePtlUB2S5GeNIRAxN3kYJns7XG8V2JQvQQy91sv7zfy+mtiO7/oITnrj4Fr8uGAbGcwK3dN83clkGlS6U1l3glmsTY5TS7T9AhMXprrfatYxGzj6iEQXzL9NwwS3ytmLwxN9AybLCqLVNxUVY4jd1opgcySN1/SWMaibBDLFPkmcdJwqcwZiFoLxJdMr2BQn8QleUs7UXRryP+KhG1LmiiBWKTdl9p4ErNHPHJ9SO4KobsLo7x0+5LA4Ez2tRJIcSezqP4CnlJtcg8cDLFFJpqLBL4hF1PrWimBSOT+kIGX9n2z8LoQieTWE3qZiJdmQ4F/m859LQQydsb+RqsieUy4jwqI5noDGyRCb3kTJZAyLgE9kTmbqFjt0WpbRtErgdbTXqNLhz4/9Qu0nQLR1xqHok2sNfj82UMhk4mj+VBAHJlVP0kGlEAkiRo360w9N8+DtlXMlv0tSkMYz0Ar7g7+0bgPuwSiJ4wzQUVx9MwaBuMxDRQdivgfKjPcljdXAqnwEvAl04uLRehAB0i6uDoXDhT3PVUrkGKHrj+PrgLhy5ZzM27Yd+fe0Uo/alr6b3IDJZAqEuxLDB7HMEWhh5Ol3DD/zNToCo3x1Ez2ZgELhhfPvHtYtscjAxkiRHc/1yKFUxlNMKAEYsPFoKcyV4NZtme32J6yTyUC8aaMrxAXT/vN+iPgjoI5smK4d/7zVrbq75ZcKorsYKBUFqf4Ye7YavxNdwcp48Plq6LPRjbi768Ggxr7FgPqDmLj1VAsrEYeUVFlYaVudxdIGVtffqxpWlS2skql+FptnBJIDTLuS2Uu4FJ9rlmrnU839bhADkpseVsBI0JsF0lAnHgBIGGrTMpgQAmkDLLKMfUNbDmKCwVxanFK0WwrH0IgHg91FvssAvNntWf+DTNH870991v5VX+vjAElkMp4kx7lTaSXFovQEVm1Pi75JLpdpjWD+Ag50rEz+urFx+SkwSjDshlQAimbsvIHdPanP6JpxW8mJ5Q/eo8RLxIomg37v2mDL+XCggElkHpdIndt6NCH9hKPXJdXMeV3qWCuyC7u2ViFDzW0DAaUQMogyw5T6e0hUybjkbHiCaIHoPrVkQElkDqSPT5VaYNhsdyO9fFewk+Yzb58uOeXDYDa8lMqgTTwEuhcZ5yoeWjxDG+VwhkUAAAAVklEQVS6/khM16qPfg1MUKkmmvo1mgGxQ5ioYz4VRj9AoKdNMjP7vbmfoTYYNjozSiCNz4BC4GgG1B3E0elR4BrNgBJIozOg5nc0A0ogjk6PAtdoBv4fv2OMtM5fQ8UAAAAASUVORK5CYII=;imageBackground=default;" parent="1" vertex="1">
          <mxGeometry x="-230" y="320" width="40" height="40" as="geometry" />
        </mxCell>
        <mxCell id="RWAFtKKmU8rQcfdAleEB-8" value="" style="outlineConnect=0;dashed=0;verticalLabelPosition=bottom;verticalAlign=top;align=center;html=1;shape=mxgraph.aws3.mysql_db_instance;fillColor=#2E73B8;gradientColor=none;" parent="1" vertex="1">
          <mxGeometry x="610" y="222" width="50" height="44.5" as="geometry" />
        </mxCell>
        <mxCell id="RWAFtKKmU8rQcfdAleEB-9" value="" style="outlineConnect=0;dashed=0;verticalLabelPosition=bottom;verticalAlign=top;align=center;html=1;shape=mxgraph.aws3.management_console;fillColor=#2E8BE8;gradientColor=none;" parent="1" vertex="1">
          <mxGeometry x="-222" y="140" width="50" height="50" as="geometry" />
        </mxCell>
        <mxCell id="RWAFtKKmU8rQcfdAleEB-12" value="运营WEB" style="text;html=1;strokeColor=none;fillColor=none;align=center;verticalAlign=middle;whiteSpace=wrap;rounded=0;" parent="1" vertex="1">
          <mxGeometry x="-150" y="140" width="60" height="30" as="geometry" />
        </mxCell>
        <mxCell id="RWAFtKKmU8rQcfdAleEB-13" value="TBOX" style="text;html=1;strokeColor=none;fillColor=none;align=center;verticalAlign=middle;whiteSpace=wrap;rounded=0;" parent="1" vertex="1">
          <mxGeometry x="-160" y="325" width="60" height="30" as="geometry" />
        </mxCell>
        <mxCell id="RWAFtKKmU8rQcfdAleEB-14" value="" style="html=1;verticalLabelPosition=bottom;align=center;labelBackgroundColor=#ffffff;verticalAlign=top;strokeWidth=2;strokeColor=#0080F0;shadow=0;dashed=0;shape=mxgraph.ios7.icons.smartphone;" parent="1" vertex="1">
          <mxGeometry x="-230" y="481" width="48" height="30" as="geometry" />
        </mxCell>
        <mxCell id="RWAFtKKmU8rQcfdAleEB-15" value="HU" style="text;html=1;strokeColor=none;fillColor=none;align=center;verticalAlign=middle;whiteSpace=wrap;rounded=0;" parent="1" vertex="1">
          <mxGeometry x="-170" y="480" width="60" height="30" as="geometry" />
        </mxCell>
        <mxCell id="RWAFtKKmU8rQcfdAleEB-17" value="Internet" style="text;html=1;strokeColor=none;fillColor=none;align=center;verticalAlign=middle;whiteSpace=wrap;rounded=0;fontStyle=1" parent="1" vertex="1">
          <mxGeometry x="-340" y="296" width="60" height="30" as="geometry" />
        </mxCell>
        <mxCell id="RWAFtKKmU8rQcfdAleEB-19" value="PKI支撑系统" style="text;html=1;strokeColor=none;fillColor=none;align=center;verticalAlign=middle;whiteSpace=wrap;rounded=0;" parent="1" vertex="1">
          <mxGeometry x="610" y="75" width="90" height="30" as="geometry" />
        </mxCell>
        <mxCell id="RWAFtKKmU8rQcfdAleEB-30" value="" style="dashed=0;html=1;shape=mxgraph.aws3.virtual_private_cloud;fillColor=#F58536;gradientColor=none;dashed=0;" parent="1" vertex="1">
          <mxGeometry x="115" y="-6" width="52" height="36" as="geometry" />
        </mxCell>
        <mxCell id="RWAFtKKmU8rQcfdAleEB-33" value="" style="dashed=0;html=1;shape=mxgraph.aws3.virtual_private_cloud;fillColor=#F58536;gradientColor=none;dashed=0;" parent="1" vertex="1">
          <mxGeometry x="-336" y="80" width="52" height="36" as="geometry" />
        </mxCell>
        <mxCell id="RWAFtKKmU8rQcfdAleEB-35" value="" style="sketch=0;outlineConnect=0;fontColor=#232F3E;gradientColor=none;fillColor=#4D27AA;strokeColor=none;dashed=0;verticalLabelPosition=bottom;verticalAlign=top;align=center;html=1;fontSize=12;fontStyle=0;aspect=fixed;pointerEvents=1;shape=mxgraph.aws4.gateway_load_balancer;" parent="1" vertex="1">
          <mxGeometry x="155" y="116" width="78" height="78" as="geometry" />
        </mxCell>
        <mxCell id="RWAFtKKmU8rQcfdAleEB-36" value="" style="sketch=0;outlineConnect=0;fontColor=#232F3E;gradientColor=none;fillColor=#4D27AA;strokeColor=none;dashed=0;verticalLabelPosition=bottom;verticalAlign=top;align=center;html=1;fontSize=12;fontStyle=0;aspect=fixed;pointerEvents=1;shape=mxgraph.aws4.gateway_load_balancer;" parent="1" vertex="1">
          <mxGeometry x="150" y="450" width="78" height="78" as="geometry" />
        </mxCell>
        <mxCell id="RWAFtKKmU8rQcfdAleEB-39" value="" style="endArrow=classic;html=1;rounded=0;exitX=1;exitY=0.5;exitDx=0;exitDy=0;" parent="1" source="RWAFtKKmU8rQcfdAleEB-67" target="RWAFtKKmU8rQcfdAleEB-35" edge="1">
          <mxGeometry width="50" height="50" relative="1" as="geometry">
            <mxPoint x="-4.547473508864641e-13" y="132.5" as="sourcePoint" />
            <mxPoint x="60" y="90" as="targetPoint" />
          </mxGeometry>
        </mxCell>
        <mxCell id="RWAFtKKmU8rQcfdAleEB-45" value="&lt;b&gt;可用区2&lt;/b&gt;" style="text;html=1;strokeColor=none;fillColor=none;align=center;verticalAlign=middle;whiteSpace=wrap;rounded=0;" parent="1" vertex="1">
          <mxGeometry x="720" y="340" width="60" height="30" as="geometry" />
        </mxCell>
        <mxCell id="RWAFtKKmU8rQcfdAleEB-47" value="" style="endArrow=classic;startArrow=classic;html=1;rounded=0;" parent="1" edge="1">
          <mxGeometry width="50" height="50" relative="1" as="geometry">
            <mxPoint x="356" y="460" as="sourcePoint" />
            <mxPoint x="356" y="170" as="targetPoint" />
            <Array as="points">
              <mxPoint x="320" y="460" />
              <mxPoint x="320" y="170" />
            </Array>
          </mxGeometry>
        </mxCell>
        <mxCell id="RWAFtKKmU8rQcfdAleEB-49" value="" style="endArrow=classic;html=1;rounded=0;" parent="1" edge="1">
          <mxGeometry width="50" height="50" relative="1" as="geometry">
            <mxPoint x="230" y="320" as="sourcePoint" />
            <mxPoint x="320" y="320" as="targetPoint" />
          </mxGeometry>
        </mxCell>
        <mxCell id="RWAFtKKmU8rQcfdAleEB-51" value="" style="endArrow=none;html=1;rounded=0;" parent="1" edge="1">
          <mxGeometry width="50" height="50" relative="1" as="geometry">
            <mxPoint x="260" y="320" as="sourcePoint" />
            <mxPoint x="230" y="160" as="targetPoint" />
            <Array as="points">
              <mxPoint x="260" y="160" />
            </Array>
          </mxGeometry>
        </mxCell>
        <mxCell id="RWAFtKKmU8rQcfdAleEB-52" value="" style="endArrow=none;html=1;rounded=0;" parent="1" source="RWAFtKKmU8rQcfdAleEB-36" edge="1">
          <mxGeometry width="50" height="50" relative="1" as="geometry">
            <mxPoint x="210" y="370" as="sourcePoint" />
            <mxPoint x="260" y="320" as="targetPoint" />
            <Array as="points">
              <mxPoint x="260" y="489" />
            </Array>
          </mxGeometry>
        </mxCell>
        <mxCell id="RWAFtKKmU8rQcfdAleEB-54" value="" style="endArrow=classic;html=1;rounded=0;" parent="1" edge="1">
          <mxGeometry width="50" height="50" relative="1" as="geometry">
            <mxPoint y="490" as="sourcePoint" />
            <mxPoint x="145" y="488.5" as="targetPoint" />
          </mxGeometry>
        </mxCell>
        <mxCell id="RWAFtKKmU8rQcfdAleEB-62" value="Internet" style="text;html=1;strokeColor=none;fillColor=none;align=center;verticalAlign=middle;whiteSpace=wrap;rounded=0;fontStyle=1" parent="1" vertex="1">
          <mxGeometry x="-344" y="450" width="60" height="30" as="geometry" />
        </mxCell>
        <mxCell id="RWAFtKKmU8rQcfdAleEB-63" value="" style="endArrow=classic;html=1;rounded=0;exitX=1;exitY=0.5;exitDx=0;exitDy=0;" parent="1" edge="1">
          <mxGeometry width="50" height="50" relative="1" as="geometry">
            <mxPoint x="-5" y="325" as="sourcePoint" />
            <mxPoint x="150" y="325" as="targetPoint" />
          </mxGeometry>
        </mxCell>
        <mxCell id="RWAFtKKmU8rQcfdAleEB-69" value="TSP系统" style="text;html=1;strokeColor=none;fillColor=none;align=center;verticalAlign=middle;whiteSpace=wrap;rounded=0;" parent="1" vertex="1">
          <mxGeometry x="434.88" y="80" width="60" height="30" as="geometry" />
        </mxCell>
        <mxCell id="5lozJBpcjCSgkVlXkn5g-1" value="LB" style="text;html=1;strokeColor=none;fillColor=none;align=center;verticalAlign=middle;whiteSpace=wrap;rounded=0;" vertex="1" parent="1">
          <mxGeometry x="164" y="194" width="60" height="30" as="geometry" />
        </mxCell>
        <mxCell id="5lozJBpcjCSgkVlXkn5g-2" value="LB" style="text;html=1;strokeColor=none;fillColor=none;align=center;verticalAlign=middle;whiteSpace=wrap;rounded=0;" vertex="1" parent="1">
          <mxGeometry x="162" y="370" width="60" height="30" as="geometry" />
        </mxCell>
        <mxCell id="5lozJBpcjCSgkVlXkn5g-3" value="LB" style="text;html=1;strokeColor=none;fillColor=none;align=center;verticalAlign=middle;whiteSpace=wrap;rounded=0;" vertex="1" parent="1">
          <mxGeometry x="159" y="531.38" width="60" height="30" as="geometry" />
        </mxCell>
        <mxCell id="5lozJBpcjCSgkVlXkn5g-5" value="" style="image;sketch=0;aspect=fixed;html=1;points=[];align=center;fontSize=12;image=img/lib/mscae/Kubernetes_Services.svg;" vertex="1" parent="1">
          <mxGeometry x="439.88" y="110" width="50" height="37" as="geometry" />
        </mxCell>
        <mxCell id="5lozJBpcjCSgkVlXkn5g-6" value="" style="image;sketch=0;aspect=fixed;html=1;points=[];align=center;fontSize=12;image=img/lib/mscae/Kubernetes_Services.svg;" vertex="1" parent="1">
          <mxGeometry x="550" y="106.5" width="50" height="37" as="geometry" />
        </mxCell>
        <mxCell id="5lozJBpcjCSgkVlXkn5g-7" value="" style="image;sketch=0;aspect=fixed;html=1;points=[];align=center;fontSize=12;image=img/lib/mscae/Cache_Redis_Product.svg;" vertex="1" parent="1">
          <mxGeometry x="459" y="221" width="50" height="42" as="geometry" />
        </mxCell>
        <mxCell id="5lozJBpcjCSgkVlXkn5g-12" value="" style="sketch=0;points=[[0,0,0],[0.25,0,0],[0.5,0,0],[0.75,0,0],[1,0,0],[0,1,0],[0.25,1,0],[0.5,1,0],[0.75,1,0],[1,1,0],[0,0.25,0],[0,0.5,0],[0,0.75,0],[1,0.25,0],[1,0.5,0],[1,0.75,0]];outlineConnect=0;fontColor=#232F3E;gradientColor=#F54749;gradientDirection=north;fillColor=#C7131F;strokeColor=#ffffff;dashed=0;verticalLabelPosition=bottom;verticalAlign=top;align=center;html=1;fontSize=12;fontStyle=0;aspect=fixed;shape=mxgraph.aws4.resourceIcon;resIcon=mxgraph.aws4.cloudhsm;" vertex="1" parent="1">
          <mxGeometry x="1080" y="181.5" width="60" height="60" as="geometry" />
        </mxCell>
        <mxCell id="5lozJBpcjCSgkVlXkn5g-15" value="" style="image;sketch=0;aspect=fixed;html=1;points=[];align=center;fontSize=12;image=img/lib/mscae/Kubernetes_Services.svg;" vertex="1" parent="1">
          <mxGeometry x="606" y="106.5" width="50" height="37" as="geometry" />
        </mxCell>
        <mxCell id="5lozJBpcjCSgkVlXkn5g-16" value="" style="image;sketch=0;aspect=fixed;html=1;points=[];align=center;fontSize=12;image=img/lib/mscae/Kubernetes_Services.svg;" vertex="1" parent="1">
          <mxGeometry x="664.5" y="105" width="50" height="37" as="geometry" />
        </mxCell>
        <mxCell id="5lozJBpcjCSgkVlXkn5g-17" value="Redis" style="text;html=1;strokeColor=none;fillColor=none;align=center;verticalAlign=middle;whiteSpace=wrap;rounded=0;" vertex="1" parent="1">
          <mxGeometry x="450" y="266" width="60" height="30" as="geometry" />
        </mxCell>
        <mxCell id="5lozJBpcjCSgkVlXkn5g-18" value="MySQL" style="text;html=1;strokeColor=none;fillColor=none;align=center;verticalAlign=middle;whiteSpace=wrap;rounded=0;" vertex="1" parent="1">
          <mxGeometry x="610" y="265" width="60" height="30" as="geometry" />
        </mxCell>
        <mxCell id="5lozJBpcjCSgkVlXkn5g-19" value="" style="sketch=0;aspect=fixed;pointerEvents=1;shadow=0;dashed=0;html=1;strokeColor=none;labelPosition=center;verticalLabelPosition=bottom;verticalAlign=top;align=center;fillColor=#00188D;shape=mxgraph.mscae.enterprise.windows_server" vertex="1" parent="1">
          <mxGeometry x="902" y="161.13" width="58.4" height="74.87" as="geometry" />
        </mxCell>
        <mxCell id="5lozJBpcjCSgkVlXkn5g-21" value="" style="outlineConnect=0;dashed=0;verticalLabelPosition=bottom;verticalAlign=top;align=center;html=1;shape=mxgraph.aws3.cloudhsm;fillColor=#759C3E;gradientColor=none;" vertex="1" parent="1">
          <mxGeometry x="1076" y="336" width="60" height="84" as="geometry" />
        </mxCell>
        <mxCell id="5lozJBpcjCSgkVlXkn5g-23" value="windows 服务器根CA（离线）" style="text;html=1;strokeColor=none;fillColor=none;align=center;verticalAlign=middle;whiteSpace=wrap;rounded=0;" vertex="1" parent="1">
          <mxGeometry x="856" y="241.5" width="170" height="30" as="geometry" />
        </mxCell>
        <mxCell id="5lozJBpcjCSgkVlXkn5g-24" value="" style="endArrow=classic;html=1;rounded=0;exitX=1;exitY=0.656;exitDx=0;exitDy=0;exitPerimeter=0;" edge="1" parent="1" source="5lozJBpcjCSgkVlXkn5g-19" target="5lozJBpcjCSgkVlXkn5g-12">
          <mxGeometry width="50" height="50" relative="1" as="geometry">
            <mxPoint x="980" y="226" as="sourcePoint" />
            <mxPoint x="1030" y="176" as="targetPoint" />
          </mxGeometry>
        </mxCell>
        <mxCell id="5lozJBpcjCSgkVlXkn5g-26" value="" style="sketch=0;aspect=fixed;pointerEvents=1;shadow=0;dashed=0;html=1;strokeColor=none;labelPosition=center;verticalLabelPosition=bottom;verticalAlign=top;align=center;fillColor=#00188D;shape=mxgraph.mscae.enterprise.windows_server" vertex="1" parent="1">
          <mxGeometry x="902" y="326.13" width="58.4" height="74.87" as="geometry" />
        </mxCell>
        <mxCell id="5lozJBpcjCSgkVlXkn5g-29" value="windows 服务器子CA" style="text;html=1;strokeColor=none;fillColor=none;align=center;verticalAlign=middle;whiteSpace=wrap;rounded=0;" vertex="1" parent="1">
          <mxGeometry x="846.2" y="412" width="170" height="30" as="geometry" />
        </mxCell>
        <mxCell id="5lozJBpcjCSgkVlXkn5g-30" value="" style="endArrow=classic;html=1;rounded=0;exitX=1;exitY=0.656;exitDx=0;exitDy=0;exitPerimeter=0;" edge="1" parent="1">
          <mxGeometry width="50" height="50" relative="1" as="geometry">
            <mxPoint x="952.5" y="379" as="sourcePoint" />
            <mxPoint x="1072.5" y="380" as="targetPoint" />
          </mxGeometry>
        </mxCell>
        <mxCell id="5lozJBpcjCSgkVlXkn5g-31" value="" style="endArrow=classic;html=1;rounded=0;entryX=0;entryY=0.5;entryDx=0;entryDy=0;entryPerimeter=0;exitX=1;exitY=0.5;exitDx=0;exitDy=0;" edge="1" parent="1" source="RWAFtKKmU8rQcfdAleEB-81" target="5lozJBpcjCSgkVlXkn5g-26">
          <mxGeometry width="50" height="50" relative="1" as="geometry">
            <mxPoint x="789" y="238.03999999999996" as="sourcePoint" />
            <mxPoint x="810" y="206" as="targetPoint" />
            <Array as="points">
              <mxPoint x="830" y="125" />
              <mxPoint x="830" y="364" />
            </Array>
          </mxGeometry>
        </mxCell>
        <mxCell id="5lozJBpcjCSgkVlXkn5g-32" value="" style="endArrow=classic;html=1;rounded=0;exitX=0.5;exitY=0.99;exitDx=0;exitDy=0;exitPerimeter=0;entryX=0.5;entryY=0;entryDx=0;entryDy=0;entryPerimeter=0;" edge="1" parent="1" source="5lozJBpcjCSgkVlXkn5g-19" target="5lozJBpcjCSgkVlXkn5g-26">
          <mxGeometry width="50" height="50" relative="1" as="geometry">
            <mxPoint x="960" y="336" as="sourcePoint" />
            <mxPoint x="1010" y="286" as="targetPoint" />
          </mxGeometry>
        </mxCell>
        <mxCell id="5lozJBpcjCSgkVlXkn5g-33" value="hsm" style="text;html=1;strokeColor=none;fillColor=none;align=center;verticalAlign=middle;whiteSpace=wrap;rounded=0;" vertex="1" parent="1">
          <mxGeometry x="1080" y="246" width="60" height="30" as="geometry" />
        </mxCell>
        <mxCell id="5lozJBpcjCSgkVlXkn5g-34" value="cloudhsm_cluster" style="text;html=1;strokeColor=none;fillColor=none;align=center;verticalAlign=middle;whiteSpace=wrap;rounded=0;" vertex="1" parent="1">
          <mxGeometry x="1070" y="426" width="60" height="30" as="geometry" />
        </mxCell>
        <mxCell id="5lozJBpcjCSgkVlXkn5g-35" value="pki支撑服务" style="text;html=1;strokeColor=none;fillColor=none;align=center;verticalAlign=middle;whiteSpace=wrap;rounded=0;" vertex="1" parent="1">
          <mxGeometry x="540" y="150" width="70" height="30" as="geometry" />
        </mxCell>
        <mxCell id="5lozJBpcjCSgkVlXkn5g-36" value="ra服务" style="text;html=1;strokeColor=none;fillColor=none;align=center;verticalAlign=middle;whiteSpace=wrap;rounded=0;" vertex="1" parent="1">
          <mxGeometry x="610" y="150" width="70" height="30" as="geometry" />
        </mxCell>
        <mxCell id="5lozJBpcjCSgkVlXkn5g-37" value="ca服务" style="text;html=1;strokeColor=none;fillColor=none;align=center;verticalAlign=middle;whiteSpace=wrap;rounded=0;" vertex="1" parent="1">
          <mxGeometry x="660" y="150" width="70" height="30" as="geometry" />
        </mxCell>
        <mxCell id="5lozJBpcjCSgkVlXkn5g-38" value="" style="image;sketch=0;aspect=fixed;html=1;points=[];align=center;fontSize=12;image=img/lib/mscae/Kubernetes_Services.svg;" vertex="1" parent="1">
          <mxGeometry x="726" y="106.5" width="50" height="37" as="geometry" />
        </mxCell>
        <mxCell id="5lozJBpcjCSgkVlXkn5g-39" value="签名服务" style="text;html=1;strokeColor=none;fillColor=none;align=center;verticalAlign=middle;whiteSpace=wrap;rounded=0;" vertex="1" parent="1">
          <mxGeometry x="713" y="150" width="70" height="30" as="geometry" />
        </mxCell>
        <mxCell id="5lozJBpcjCSgkVlXkn5g-41" value="" style="endArrow=none;html=1;rounded=0;exitX=0.625;exitY=0.653;exitDx=0;exitDy=0;exitPerimeter=0;" edge="1" parent="1" source="RWAFtKKmU8rQcfdAleEB-29">
          <mxGeometry width="50" height="50" relative="1" as="geometry">
            <mxPoint x="760" y="540" as="sourcePoint" />
            <mxPoint x="830" y="360" as="targetPoint" />
            <Array as="points">
              <mxPoint x="830" y="430" />
              <mxPoint x="830" y="410" />
            </Array>
          </mxGeometry>
        </mxCell>
        <mxCell id="5lozJBpcjCSgkVlXkn5g-43" value="" style="outlineConnect=0;dashed=0;verticalLabelPosition=bottom;verticalAlign=top;align=center;html=1;shape=mxgraph.aws3.mysql_db_instance;fillColor=#2E73B8;gradientColor=none;" vertex="1" parent="1">
          <mxGeometry x="610" y="521" width="50" height="44.5" as="geometry" />
        </mxCell>
        <mxCell id="5lozJBpcjCSgkVlXkn5g-44" value="TSP系统" style="text;html=1;strokeColor=none;fillColor=none;align=center;verticalAlign=middle;whiteSpace=wrap;rounded=0;" vertex="1" parent="1">
          <mxGeometry x="434.88" y="379" width="60" height="30" as="geometry" />
        </mxCell>
        <mxCell id="5lozJBpcjCSgkVlXkn5g-45" value="" style="image;sketch=0;aspect=fixed;html=1;points=[];align=center;fontSize=12;image=img/lib/mscae/Kubernetes_Services.svg;" vertex="1" parent="1">
          <mxGeometry x="439.88" y="409" width="50" height="37" as="geometry" />
        </mxCell>
        <mxCell id="5lozJBpcjCSgkVlXkn5g-46" value="" style="image;sketch=0;aspect=fixed;html=1;points=[];align=center;fontSize=12;image=img/lib/mscae/Kubernetes_Services.svg;" vertex="1" parent="1">
          <mxGeometry x="550" y="405.5" width="50" height="37" as="geometry" />
        </mxCell>
        <mxCell id="5lozJBpcjCSgkVlXkn5g-47" value="" style="image;sketch=0;aspect=fixed;html=1;points=[];align=center;fontSize=12;image=img/lib/mscae/Cache_Redis_Product.svg;" vertex="1" parent="1">
          <mxGeometry x="459" y="520" width="50" height="42" as="geometry" />
        </mxCell>
        <mxCell id="5lozJBpcjCSgkVlXkn5g-48" value="" style="image;sketch=0;aspect=fixed;html=1;points=[];align=center;fontSize=12;image=img/lib/mscae/Kubernetes_Services.svg;" vertex="1" parent="1">
          <mxGeometry x="606" y="405.5" width="50" height="37" as="geometry" />
        </mxCell>
        <mxCell id="5lozJBpcjCSgkVlXkn5g-49" value="" style="image;sketch=0;aspect=fixed;html=1;points=[];align=center;fontSize=12;image=img/lib/mscae/Kubernetes_Services.svg;" vertex="1" parent="1">
          <mxGeometry x="664.5" y="404" width="50" height="37" as="geometry" />
        </mxCell>
        <mxCell id="5lozJBpcjCSgkVlXkn5g-50" value="Redis" style="text;html=1;strokeColor=none;fillColor=none;align=center;verticalAlign=middle;whiteSpace=wrap;rounded=0;" vertex="1" parent="1">
          <mxGeometry x="454" y="570" width="60" height="30" as="geometry" />
        </mxCell>
        <mxCell id="5lozJBpcjCSgkVlXkn5g-51" value="MySQL" style="text;html=1;strokeColor=none;fillColor=none;align=center;verticalAlign=middle;whiteSpace=wrap;rounded=0;" vertex="1" parent="1">
          <mxGeometry x="610" y="564" width="60" height="30" as="geometry" />
        </mxCell>
        <mxCell id="5lozJBpcjCSgkVlXkn5g-52" value="pki支撑服务" style="text;html=1;strokeColor=none;fillColor=none;align=center;verticalAlign=middle;whiteSpace=wrap;rounded=0;" vertex="1" parent="1">
          <mxGeometry x="540" y="449" width="70" height="30" as="geometry" />
        </mxCell>
        <mxCell id="5lozJBpcjCSgkVlXkn5g-53" value="ra服务" style="text;html=1;strokeColor=none;fillColor=none;align=center;verticalAlign=middle;whiteSpace=wrap;rounded=0;" vertex="1" parent="1">
          <mxGeometry x="597" y="449" width="70" height="30" as="geometry" />
        </mxCell>
        <mxCell id="5lozJBpcjCSgkVlXkn5g-54" value="ca服务" style="text;html=1;strokeColor=none;fillColor=none;align=center;verticalAlign=middle;whiteSpace=wrap;rounded=0;" vertex="1" parent="1">
          <mxGeometry x="648" y="449" width="70" height="30" as="geometry" />
        </mxCell>
        <mxCell id="5lozJBpcjCSgkVlXkn5g-55" value="" style="image;sketch=0;aspect=fixed;html=1;points=[];align=center;fontSize=12;image=img/lib/mscae/Kubernetes_Services.svg;" vertex="1" parent="1">
          <mxGeometry x="726" y="405.5" width="50" height="37" as="geometry" />
        </mxCell>
        <mxCell id="5lozJBpcjCSgkVlXkn5g-56" value="签名服务" style="text;html=1;strokeColor=none;fillColor=none;align=center;verticalAlign=middle;whiteSpace=wrap;rounded=0;" vertex="1" parent="1">
          <mxGeometry x="714" y="450" width="70" height="30" as="geometry" />
        </mxCell>
        <mxCell id="5lozJBpcjCSgkVlXkn5g-61" value="PKI支撑系统" style="text;html=1;strokeColor=none;fillColor=none;align=center;verticalAlign=middle;whiteSpace=wrap;rounded=0;" vertex="1" parent="1">
          <mxGeometry x="590" y="374" width="90" height="30" as="geometry" />
        </mxCell>
        <mxCell id="5lozJBpcjCSgkVlXkn5g-62" value="&lt;b&gt;可用区1&lt;/b&gt;" style="text;html=1;strokeColor=none;fillColor=none;align=center;verticalAlign=middle;whiteSpace=wrap;rounded=0;" vertex="1" parent="1">
          <mxGeometry x="715" y="36" width="60" height="30" as="geometry" />
        </mxCell>
      </root>
    </mxGraphModel>
  </diagram>
</mxfile>
